{"title":"The Vampire Diaries Season 1 [BRRIP] [720p] [350mb]","uid":8926579,"size":7705168877,"categoryP":"video","categoryS":"hd___tv_shows","magnet":"?xt=urn:btih:0fd65f35aa66f0763115fab685d3a2cf728ee133&amp;dn=The+Vampire+Diaries+Season+1+%5BBRRIP%5D+%5B720p%5D+%5B350mb%5D&amp;tr=udp%3A%2F%2Ftracker.openbittorrent.com%3A80&amp;tr=udp%3A%2F%2Fopen.demonii.com%3A1337&amp;tr=udp%3A%2F%2Ftracker.coppersurfer.tk%3A6969&amp;tr=udp%3A%2F%2Fexodus.desync.com%3A6969","seeders":1,"leechers":0,"uploader":"kinglaw25","files":-1,"time":1379377855,"description":"\nMediaInfo\n\n\n\nFormat                                   : MPEG-4\nFormat profile                           : Base Media\nCodec ID                                 : isom\nFile size                                : 350 MiB\nDuration                                 : 42mn 1s\nOverall bit rate mode                    : Variable\nOverall bit rate                         : 1 164 Kbps\nEncoded date                             : UTC 2013-09-16 09:32:15\nTagged date                              : UTC 2013-09-16 09:32:15\n\nVideo\nID                                       : 1\nFormat                                   : AVC\nFormat/Info                              : Advanced Video Codec\nFormat profile                           : &lt;a class=&quot;__cf_email__&quot; href=&quot;/cdn-cgi/l/email-protection&quot; data-cfemail=&quot;c981a0aea18985fde7f8&quot;&gt;[email&amp;#160;protected]&lt;/a&gt;&lt;script cf-hash='f9e31' type=&quot;text/javascript&quot;&gt;\n/* &lt;![CDATA[ */!function(){try{var t=&quot;currentScript&quot;in document?document.currentScript:function(){for(var t=document.getElementsByTagName(&quot;script&quot;),e=t.length;e--;)if(t[e].getAttribute(&quot;cf-hash&quot;))return t[e]}();if(t&amp;&amp;t.previousSibling){var e,r,n,i,c=t.previousSibling,a=c.getAttribute(&quot;data-cfemail&quot;);if(a){for(e=&quot;&quot;,r=parseInt(a.substr(0,2),16),n=2;a.length-n;n+=2)i=parseInt(a.substr(n,2),16)^r,e+=String.fromCharCode(i);e=document.createTextNode(e),c.parentNode.replaceChild(e,c)}}}catch(u){}}();/* ]]&gt; */&lt;/script&gt;\nFormat settings, CABAC                   : Yes\nFormat settings, ReFrames                : 5 frames\nCodec ID                                 : avc1\nCodec ID/Info                            : Advanced Video Coding\nDuration                                 : 42mn 1s\nBit rate                                 : 1 096 Kbps\nMaximum bit rate                         : 8 361 Kbps\nWidth                                    : 1 280 pixels\nHeight                                   : 720 pixels\nDisplay aspect ratio                     : 16:9\nFrame rate mode                          : Constant\nFrame rate                               : 23.976 fps\nColor space                              : YUV\nChroma subsampling                       : 4:2:0\nBit depth                                : 8 bits\nScan type                                : Progressive\nBits/(Pixel*Frame)                       : 0.050\nStream size                              : 329 MiB (94%)\nTitle                                    : \n\n\n\nWriting library                          : x264 core 133 r2334 a3ac64b\nEncoding settings                        : cabac=1 // deblock=1:0:0 / analyse=0x3:0x133 / me=umh / subme=9 / psy=1 / psy_rd=1.00:0.00 // me_range=24 / chroma_me=1 / trellis=2 / 8x8dct=1 / cqm=0 / deadzone=21,11 / fast_pskip=0 / chroma_qp_offset=-2 / threads=6 / lookahead_threads=1 / sliced_threads=0 / nr=0 / decimate=1 / interlaced=0 / bluray_compat=0 / constrained_intra=0 / bframes=3 / b_pyramid=2 / b_adapt=2 / b_bias=0 / direct=3 / weightb=1 / open_gop=1 / weightp=2 / keyint=240 / keyint_min=23 / scenecut=40 / intra_refresh=0 / rc_lookahead=60 / rc=2pass / mbtree=1 / bitrate=1096 / ratetol=1.0 / qcomp=0.60 / qpmin=10 / qpmax=51 / qpstep=4 / cplxblur=20.0 / qblur=0.5 / vbv_maxrate=62500 / vbv_bufsize=78125 / nal_hrd=none / ip_ratio=1.40 / aq=1:1.00\nEncoded date                             : UTC 2013-09-16 09:32:15\nTagged date                              : UTC 2013-09-16 09:32:56\n\nAudio\nID                                       : 2\nFormat                                   : AAC\nFormat/Info                              : Advanced Audio Codec\nFormat profile                           : LC\nCodec ID                                 : 40\nDuration                                 : 42mn 1s\nBit rate mode                            : Variable\nBit rate                                 : 64.0 Kbps\nMaximum bit rate                         : 120 Kbps\nChannel(s)                               : 2 channels\nChannel positions                        : Front: L R\nSampling rate                            : 44.1 KHz\nCompression mode                         : Lossy\nStream size                              : 19.2 MiB (5%)\nEncoded date                             : UTC 2013-09-16 07:24:47\nTagged date                              : UTC 2013-09-16 09:32:56\n\n\n\nEnjoy!!!\n\n\nHere's some screenshots!\n &lt;a href=&quot;\nhttp://bayimg.com/HaPacAAek&quot; rel=&quot;nofollow&quot; target=&quot;_NEW&quot;&gt;\nhttp://bayimg.com/HaPacAAek&lt;/a&gt;\n &lt;a href=&quot;\nhttp://bayimg.com/HAPAEAaek&quot; rel=&quot;nofollow&quot; target=&quot;_NEW&quot;&gt;\nhttp://bayimg.com/HAPAEAaek&lt;/a&gt;\n &lt;a href=&quot;\nhttp://bayimg.com/HApAfAaEK&quot; rel=&quot;nofollow&quot; target=&quot;_NEW&quot;&gt;\nhttp://bayimg.com/HApAfAaEK&lt;/a&gt;\n &lt;a href=&quot;\nhttp://bayimg.com/hapagaAek&quot; rel=&quot;nofollow&quot; target=&quot;_NEW&quot;&gt;\nhttp://bayimg.com/hapagaAek&lt;/a&gt;\n &lt;a href=&quot;\nhttp://bayimg.com/IapajAaeK&quot; rel=&quot;nofollow&quot; target=&quot;_NEW&quot;&gt;\nhttp://bayimg.com/IapajAaeK&lt;/a&gt;\n &lt;a href=&quot;\nhttp://bayimg.com/JaPAAAAeK&quot; rel=&quot;nofollow&quot; target=&quot;_NEW&quot;&gt;\nhttp://bayimg.com/JaPAAAAeK&lt;/a&gt;\n\nhttp;//bayimg.com/kaPalAAEk\n &lt;a href=&quot;\nhttp://bayimg.com/KapAPaaek&quot; rel=&quot;nofollow&quot; target=&quot;_NEW&quot;&gt;\nhttp://bayimg.com/KapAPaaek&lt;/a&gt;\n &lt;a href=&quot;\nhttp://bayimg.com/LApaAAAEk&quot; rel=&quot;nofollow&quot; target=&quot;_NEW&quot;&gt;\nhttp://bayimg.com/LApaAAAEk&lt;/a&gt;\n &lt;a href=&quot;\nhttp://bayimg.com/laPAeaaEK&quot; rel=&quot;nofollow&quot; target=&quot;_NEW&quot;&gt;\nhttp://bayimg.com/laPAeaaEK&lt;/a&gt;\n &lt;a href=&quot;\nhttp://bayimg.com/lapAFAaeK&quot; rel=&quot;nofollow&quot; target=&quot;_NEW&quot;&gt;\nhttp://bayimg.com/lapAFAaeK&lt;/a&gt;\n &lt;a href=&quot;\nhttp://bayimg.com/LApagAaEk&quot; rel=&quot;nofollow&quot; target=&quot;_NEW&quot;&gt;\nhttp://bayimg.com/LApagAaEk&lt;/a&gt;\n\n\nOther seasons in 720p after the next two season in 480p... (2&amp;4)\n\nUntil the next upload... peace...xD","torrent":{"xt":"urn:btih:0fd65f35aa66f0763115fab685d3a2cf728ee133","amp;dn":"The+Vampire+Diaries+Season+1+%5BBRRIP%5D+%5B720p%5D+%5B350mb%5D","amp;tr":["udp%3A%2F%2Ftracker.openbittorrent.com%3A80","udp%3A%2F%2Fopen.demonii.com%3A1337","udp%3A%2F%2Ftracker.coppersurfer.tk%3A6969","udp%3A%2F%2Fexodus.desync.com%3A6969"],"infoHash":"0fd65f35aa66f0763115fab685d3a2cf728ee133","infoHashBuffer":{"type":"Buffer","data":[15,214,95,53,170,102,240,118,49,21,250,182,133,211,162,207,114,142,225,51]},"announce":[],"urlList":[]}}